<svg class="icon" style="width: 1em;height: 1em;vertical-align: middle;fill: currentColor;overflow: hidden;" viewBox="0 0 1024 1024" version="1.1" xmlns="http://www.w3.org/2000/svg" p-id="1034"><path d="M960 797.248V226.784C960 137.248 886.752 64 797.216 64H226.784C137.248 64 64 137.248 64 226.784v570.464c0 88.64 71.808 161.344 160.16 162.752h575.68c88.32-1.408 160.16-74.08 160.16-162.752" fill="#000000" p-id="1035"></path><path d="M460.736 437.12v-27.296a229.184 229.184 0 0 0-28.16-1.92c-114.88 0-208.576 95.552-208.576 213.44a215.136 215.136 0 0 0 88.928 174.784 214.72 214.72 0 0 1-55.968-145.184c0.384-116.384 91.136-211.2 203.776-213.824z" fill="#00FAF0" p-id="1036"></path><path d="M465.568 747.616c51.04-0.096 92.896-41.44 94.848-93.632V189.568h83.008A153.952 153.952 0 0 1 640.8 160h-113.344v464.384c-1.92 52.224-43.808 93.568-94.848 93.664-15.392 0-30.528-3.904-44.064-11.392a93.824 93.824 0 0 0 77.056 40.96h-0.032z m333.056-400.32v-25.824a153.664 153.664 0 0 1-85.952-26.144 160.32 160.32 0 0 0 85.952 51.904v0.064z" fill="#00FAF0" p-id="1037"></path><path d="M713.056 295.36a163.008 163.008 0 0 1-38.912-105.76h-30.368a163.36 163.36 0 0 0 69.28 105.792z m-280.48 228.192c-25.28 0-49.472 10.24-67.36 28.512a98.592 98.592 0 0 0-27.872 68.928 97.28 97.28 0 0 0 51.136 86.08 98.592 98.592 0 0 1 9.76-125.76 94.08 94.08 0 0 1 67.328-28.576c9.6 0 19.232 1.536 28.16 4.576V439.04a229.12 229.12 0 0 0-28.16-1.888h-4.832v90.976a86.144 86.144 0 0 0-28.16-4.544z" fill="#FE2C55" p-id="1038"></path><path d="M798.656 347.296v90.24a264.96 264.96 0 0 1-157.504-51.968v235.424c0 117.504-93.344 213.44-208.576 213.44a203.52 203.52 0 0 1-119.296-38.688C351.424 837.472 405.536 864 465.92 864c114.88 0 208.608-95.552 208.608-213.44v-235.424A265.664 265.664 0 0 0 832 467.072V351.04a191.232 191.232 0 0 1-33.344-3.776v0.032z" fill="#FE2C55" p-id="1039"></path><path d="M641.152 620.992V385.6a265.664 265.664 0 0 0 157.504 51.904v-90.208A158.944 158.944 0 0 1 712.64 295.36a159.712 159.712 0 0 1-68.928-105.792h-83.008v464.448c-1.92 52.192-43.776 93.536-94.816 93.632a93.44 93.44 0 0 1-77.12-40.576 97.728 97.728 0 0 1-51.072-86.08c0-25.824 10.016-50.624 27.872-68.896a94.08 94.08 0 0 1 67.328-28.48c9.6 0 19.264 1.504 28.16 4.544V437.12c-112.64 2.656-203.424 97.44-203.424 213.056A214.016 214.016 0 0 0 313.6 795.392a204.384 204.384 0 0 0 119.328 38.688c114.464 0.352 208.224-95.52 208.224-213.056z" fill="#FFFFFF" p-id="1040"></path></svg>
